<?xml version="1.0" encoding="UTF-8" standalone="no"?>
<!DOCTYPE svg PUBLIC "-//W3C//DTD SVG 1.1//EN"
 "http://www.w3.org/Graphics/SVG/1.1/DTD/svg11.dtd">
<!-- Generated by graphviz version 9.0.0 (20230911.1827)
 -->
<!-- Pages: 1 -->
<svg width="839pt" height="128pt"
 viewBox="0.00 0.00 839.00 128.00" xmlns="http://www.w3.org/2000/svg" xmlns:xlink="http://www.w3.org/1999/xlink">
<g id="graph0" class="graph" transform="scale(1 1) rotate(0) translate(4 124)">
<polygon fill="white" stroke="none" points="-4,4 -4,-124 835,-124 835,4 -4,4"/>
<!-- 4335032448 -->
<g id="node1" class="node">
<title>4335032448</title>
<polygon fill="none" stroke="black" points="1.5,-83.5 1.5,-119.5 185.25,-119.5 185.25,-83.5 1.5,-83.5"/>
<text text-anchor="middle" x="12.88" y="-96.7" font-family="Times,serif" font-size="14.00">x</text>
<polyline fill="none" stroke="black" points="24.25,-84 24.25,-119.5"/>
<text text-anchor="middle" x="64.12" y="-96.7" font-family="Times,serif" font-size="14.00">data 5.0000</text>
<polyline fill="none" stroke="black" points="104,-84 104,-119.5"/>
<text text-anchor="middle" x="144.62" y="-96.7" font-family="Times,serif" font-size="14.00">grad 7.0000</text>
</g>
<!-- 4781437920* -->
<g id="node7" class="node">
<title>4781437920*</title>
<ellipse fill="none" stroke="black" cx="249.75" cy="-73.5" rx="27" ry="18"/>
<text text-anchor="middle" x="249.75" y="-68.45" font-family="Times,serif" font-size="14.00">*</text>
</g>
<!-- 4335032448&#45;&gt;4781437920* -->
<g id="edge5" class="edge">
<title>4335032448&#45;&gt;4781437920*</title>
<path fill="none" stroke="black" d="M185.51,-84.97C194.81,-83.28 203.83,-81.65 212.01,-80.16"/>
<polygon fill="black" stroke="black" points="212.61,-83.61 221.83,-78.38 211.36,-76.72 212.61,-83.61"/>
</g>
<!-- 4808542928 -->
<g id="node2" class="node">
<title>4808542928</title>
<polygon fill="none" stroke="black" points="639,-27.5 639,-63.5 831,-63.5 831,-27.5 639,-27.5"/>
<text text-anchor="middle" x="651.12" y="-40.7" font-family="Times,serif" font-size="14.00">L</text>
<polyline fill="none" stroke="black" points="663.25,-28 663.25,-63.5"/>
<text text-anchor="middle" x="706.5" y="-40.7" font-family="Times,serif" font-size="14.00">data 37.0000</text>
<polyline fill="none" stroke="black" points="749.75,-28 749.75,-63.5"/>
<text text-anchor="middle" x="790.38" y="-40.7" font-family="Times,serif" font-size="14.00">grad 1.0000</text>
</g>
<!-- 4808542928+ -->
<g id="node3" class="node">
<title>4808542928+</title>
<ellipse fill="none" stroke="black" cx="576" cy="-45.5" rx="27" ry="18"/>
<text text-anchor="middle" x="576" y="-40.45" font-family="Times,serif" font-size="14.00">+</text>
</g>
<!-- 4808542928+&#45;&gt;4808542928 -->
<g id="edge1" class="edge">
<title>4808542928+&#45;&gt;4808542928</title>
<path fill="none" stroke="black" d="M603.28,-45.5C610.4,-45.5 618.57,-45.5 627.27,-45.5"/>
<polygon fill="black" stroke="black" points="627.03,-49 637.03,-45.5 627.03,-42 627.03,-49"/>
</g>
<!-- 4777913632 -->
<g id="node4" class="node">
<title>4777913632</title>
<polygon fill="none" stroke="black" points="321,-0.5 321,-36.5 504.75,-36.5 504.75,-0.5 321,-0.5"/>
<text text-anchor="middle" x="332.38" y="-13.7" font-family="Times,serif" font-size="14.00">b</text>
<polyline fill="none" stroke="black" points="343.75,-1 343.75,-36.5"/>
<text text-anchor="middle" x="383.62" y="-13.7" font-family="Times,serif" font-size="14.00">data 2.0000</text>
<polyline fill="none" stroke="black" points="423.5,-1 423.5,-36.5"/>
<text text-anchor="middle" x="464.12" y="-13.7" font-family="Times,serif" font-size="14.00">grad 1.0000</text>
</g>
<!-- 4777913632&#45;&gt;4808542928+ -->
<g id="edge3" class="edge">
<title>4777913632&#45;&gt;4808542928+</title>
<path fill="none" stroke="black" d="M504.8,-33.74C516.6,-35.71 528.1,-37.64 538.26,-39.34"/>
<polygon fill="black" stroke="black" points="537.58,-42.78 548.02,-40.98 538.73,-35.87 537.58,-42.78"/>
</g>
<!-- 4335032160 -->
<g id="node5" class="node">
<title>4335032160</title>
<polygon fill="none" stroke="black" points="0,-28.5 0,-64.5 186.75,-64.5 186.75,-28.5 0,-28.5"/>
<text text-anchor="middle" x="12.88" y="-41.7" font-family="Times,serif" font-size="14.00">w</text>
<polyline fill="none" stroke="black" points="25.75,-29 25.75,-64.5"/>
<text text-anchor="middle" x="65.62" y="-41.7" font-family="Times,serif" font-size="14.00">data 7.0000</text>
<polyline fill="none" stroke="black" points="105.5,-29 105.5,-64.5"/>
<text text-anchor="middle" x="146.12" y="-41.7" font-family="Times,serif" font-size="14.00">grad 5.0000</text>
</g>
<!-- 4335032160&#45;&gt;4781437920* -->
<g id="edge4" class="edge">
<title>4335032160&#45;&gt;4781437920*</title>
<path fill="none" stroke="black" d="M186.85,-62.67C195.72,-64.22 204.31,-65.73 212.12,-67.09"/>
<polygon fill="black" stroke="black" points="211.38,-70.52 221.83,-68.79 212.58,-63.62 211.38,-70.52"/>
</g>
<!-- 4781437920 -->
<g id="node6" class="node">
<title>4781437920</title>
<polygon fill="none" stroke="black" points="312.75,-55.5 312.75,-91.5 513,-91.5 513,-55.5 312.75,-55.5"/>
<text text-anchor="middle" x="329" y="-68.7" font-family="Times,serif" font-size="14.00">wx</text>
<polyline fill="none" stroke="black" points="345.25,-56 345.25,-91.5"/>
<text text-anchor="middle" x="388.5" y="-68.7" font-family="Times,serif" font-size="14.00">data 35.0000</text>
<polyline fill="none" stroke="black" points="431.75,-56 431.75,-91.5"/>
<text text-anchor="middle" x="472.38" y="-68.7" font-family="Times,serif" font-size="14.00">grad 1.0000</text>
</g>
<!-- 4781437920&#45;&gt;4808542928+ -->
<g id="edge6" class="edge">
<title>4781437920&#45;&gt;4808542928+</title>
<path fill="none" stroke="black" d="M513.17,-56.25C522.02,-54.71 530.56,-53.22 538.32,-51.87"/>
<polygon fill="black" stroke="black" points="538.69,-55.36 547.94,-50.2 537.49,-48.47 538.69,-55.36"/>
</g>
<!-- 4781437920*&#45;&gt;4781437920 -->
<g id="edge2" class="edge">
<title>4781437920*&#45;&gt;4781437920</title>
<path fill="none" stroke="black" d="M277,-73.5C284.14,-73.5 292.36,-73.5 301.13,-73.5"/>
<polygon fill="black" stroke="black" points="300.99,-77 310.99,-73.5 300.99,-70 300.99,-77"/>
</g>
</g>
</svg>
