<?xml version="1.0" encoding="UTF-8" standalone="no"?>
<!DOCTYPE svg PUBLIC "-//W3C//DTD SVG 1.1//EN"
 "http://www.w3.org/Graphics/SVG/1.1/DTD/svg11.dtd">
<!-- Generated by graphviz version 9.0.0 (20230911.1827)
 -->
<!-- Pages: 1 -->
<svg width="1833pt" height="237pt"
 viewBox="0.00 0.00 1832.87 237.00" xmlns="http://www.w3.org/2000/svg" xmlns:xlink="http://www.w3.org/1999/xlink">
<g id="graph0" class="graph" transform="scale(1 1) rotate(0) translate(4 233)">
<polygon fill="white" stroke="none" points="-4,4 -4,-233 1828.87,-233 1828.87,4 -4,4"/>
<!-- 4303999520 -->
<g id="node1" class="node">
<title>4303999520</title>
<polygon fill="none" stroke="black" points="324.49,-0.5 324.49,-36.5 509.74,-36.5 509.74,-0.5 324.49,-0.5"/>
<text text-anchor="middle" x="334.37" y="-13.7" font-family="Times,serif" font-size="14.00"> </text>
<polyline fill="none" stroke="black" points="344.24,-1 344.24,-36.5"/>
<text text-anchor="middle" x="384.12" y="-13.7" font-family="Times,serif" font-size="14.00">data 0.1429</text>
<polyline fill="none" stroke="black" points="423.99,-1 423.99,-36.5"/>
<text text-anchor="middle" x="466.87" y="-13.7" font-family="Times,serif" font-size="14.00">grad &#45;8.0000</text>
</g>
<!-- 4303999712* -->
<g id="node11" class="node">
<title>4303999712*</title>
<ellipse fill="none" stroke="black" cx="579.12" cy="-45.5" rx="27" ry="18"/>
<text text-anchor="middle" x="579.12" y="-40.45" font-family="Times,serif" font-size="14.00">*</text>
</g>
<!-- 4303999520&#45;&gt;4303999712* -->
<g id="edge7" class="edge">
<title>4303999520&#45;&gt;4303999712*</title>
<path fill="none" stroke="black" d="M509.8,-33.97C520.92,-35.85 531.73,-37.67 541.35,-39.3"/>
<polygon fill="black" stroke="black" points="540.5,-42.7 550.94,-40.91 541.66,-35.8 540.5,-42.7"/>
</g>
<!-- 4303999520**&#45;1 -->
<g id="node2" class="node">
<title>4303999520**&#45;1</title>
<ellipse fill="none" stroke="black" cx="254.31" cy="-18.5" rx="27.81" ry="18"/>
<text text-anchor="middle" x="254.31" y="-13.45" font-family="Times,serif" font-size="14.00">**&#45;1</text>
</g>
<!-- 4303999520**&#45;1&#45;&gt;4303999520 -->
<g id="edge1" class="edge">
<title>4303999520**&#45;1&#45;&gt;4303999520</title>
<path fill="none" stroke="black" d="M282.59,-18.5C291.46,-18.5 301.89,-18.5 312.95,-18.5"/>
<polygon fill="black" stroke="black" points="312.67,-22 322.67,-18.5 312.67,-15 312.67,-22"/>
</g>
<!-- 4298940464 -->
<g id="node3" class="node">
<title>4298940464</title>
<polygon fill="none" stroke="black" points="979.62,-137.5 979.62,-173.5 1193.37,-173.5 1193.37,-137.5 979.62,-137.5"/>
<text text-anchor="middle" x="1002.62" y="-150.7" font-family="Times,serif" font-size="14.00">w1x1</text>
<polyline fill="none" stroke="black" points="1025.62,-138 1025.62,-173.5"/>
<text text-anchor="middle" x="1068.87" y="-150.7" font-family="Times,serif" font-size="14.00">data 35.0000</text>
<polyline fill="none" stroke="black" points="1112.12,-138 1112.12,-173.5"/>
<text text-anchor="middle" x="1152.74" y="-150.7" font-family="Times,serif" font-size="14.00">grad 1.0000</text>
</g>
<!-- 4304000144+ -->
<g id="node7" class="node">
<title>4304000144+</title>
<ellipse fill="none" stroke="black" cx="1256.37" cy="-127.5" rx="27" ry="18"/>
<text text-anchor="middle" x="1256.37" y="-122.45" font-family="Times,serif" font-size="14.00">+</text>
</g>
<!-- 4298940464&#45;&gt;4304000144+ -->
<g id="edge9" class="edge">
<title>4298940464&#45;&gt;4304000144+</title>
<path fill="none" stroke="black" d="M1193.81,-137.77C1202.52,-136.31 1210.88,-134.92 1218.49,-133.65"/>
<polygon fill="black" stroke="black" points="1218.97,-137.12 1228.26,-132.02 1217.82,-130.21 1218.97,-137.12"/>
</g>
<!-- 4298940464* -->
<g id="node4" class="node">
<title>4298940464*</title>
<ellipse fill="none" stroke="black" cx="916.62" cy="-155.5" rx="27" ry="18"/>
<text text-anchor="middle" x="916.62" y="-150.45" font-family="Times,serif" font-size="14.00">*</text>
</g>
<!-- 4298940464*&#45;&gt;4298940464 -->
<g id="edge2" class="edge">
<title>4298940464*&#45;&gt;4298940464</title>
<path fill="none" stroke="black" d="M943.85,-155.5C950.98,-155.5 959.19,-155.5 967.99,-155.5"/>
<polygon fill="black" stroke="black" points="967.9,-159 977.9,-155.5 967.9,-152 967.9,-159"/>
</g>
<!-- 4303167056 -->
<g id="node5" class="node">
<title>4303167056</title>
<polygon fill="none" stroke="black" points="651.12,-192.5 651.12,-228.5 844.62,-228.5 844.62,-192.5 651.12,-192.5"/>
<text text-anchor="middle" x="667.37" y="-205.7" font-family="Times,serif" font-size="14.00">w1</text>
<polyline fill="none" stroke="black" points="683.62,-193 683.62,-228.5"/>
<text text-anchor="middle" x="723.49" y="-205.7" font-family="Times,serif" font-size="14.00">data 7.0000</text>
<polyline fill="none" stroke="black" points="763.37,-193 763.37,-228.5"/>
<text text-anchor="middle" x="803.99" y="-205.7" font-family="Times,serif" font-size="14.00">grad 5.0000</text>
</g>
<!-- 4303167056&#45;&gt;4298940464* -->
<g id="edge8" class="edge">
<title>4303167056&#45;&gt;4298940464*</title>
<path fill="none" stroke="black" d="M826.55,-192.08C835.74,-189.43 844.94,-186.55 853.62,-183.5 863.74,-179.94 874.48,-175.38 884.13,-170.98"/>
<polygon fill="black" stroke="black" points="885.52,-174.19 893.1,-166.79 882.56,-167.85 885.52,-174.19"/>
</g>
<!-- 4304000144 -->
<g id="node6" class="node">
<title>4304000144</title>
<polygon fill="none" stroke="black" points="1319.37,-109.5 1319.37,-145.5 1506.87,-145.5 1506.87,-109.5 1319.37,-109.5"/>
<text text-anchor="middle" x="1329.24" y="-122.7" font-family="Times,serif" font-size="14.00"> </text>
<polyline fill="none" stroke="black" points="1339.12,-110 1339.12,-145.5"/>
<text text-anchor="middle" x="1382.37" y="-122.7" font-family="Times,serif" font-size="14.00">data 33.8571</text>
<polyline fill="none" stroke="black" points="1425.62,-110 1425.62,-145.5"/>
<text text-anchor="middle" x="1466.24" y="-122.7" font-family="Times,serif" font-size="14.00">grad 1.0000</text>
</g>
<!-- 4304000336+ -->
<g id="node14" class="node">
<title>4304000336+</title>
<ellipse fill="none" stroke="black" cx="1569.87" cy="-154.5" rx="27" ry="18"/>
<text text-anchor="middle" x="1569.87" y="-149.45" font-family="Times,serif" font-size="14.00">+</text>
</g>
<!-- 4304000144&#45;&gt;4304000336+ -->
<g id="edge15" class="edge">
<title>4304000144&#45;&gt;4304000336+</title>
<path fill="none" stroke="black" d="M1507.26,-143.75C1516.02,-145.28 1524.49,-146.76 1532.21,-148.1"/>
<polygon fill="black" stroke="black" points="1531.34,-151.51 1541.79,-149.78 1532.54,-144.61 1531.34,-151.51"/>
</g>
<!-- 4304000144+&#45;&gt;4304000144 -->
<g id="edge3" class="edge">
<title>4304000144+&#45;&gt;4304000144</title>
<path fill="none" stroke="black" d="M1283.62,-127.5C1290.77,-127.5 1298.98,-127.5 1307.72,-127.5"/>
<polygon fill="black" stroke="black" points="1307.51,-131 1317.51,-127.5 1307.51,-124 1307.51,-131"/>
</g>
<!-- 4298938016 -->
<g id="node8" class="node">
<title>4298938016</title>
<polygon fill="none" stroke="black" points="1321.24,-164.5 1321.24,-200.5 1504.99,-200.5 1504.99,-164.5 1321.24,-164.5"/>
<text text-anchor="middle" x="1332.62" y="-177.7" font-family="Times,serif" font-size="14.00">b</text>
<polyline fill="none" stroke="black" points="1343.99,-165 1343.99,-200.5"/>
<text text-anchor="middle" x="1383.87" y="-177.7" font-family="Times,serif" font-size="14.00">data 2.0000</text>
<polyline fill="none" stroke="black" points="1423.74,-165 1423.74,-200.5"/>
<text text-anchor="middle" x="1464.37" y="-177.7" font-family="Times,serif" font-size="14.00">grad 1.0000</text>
</g>
<!-- 4298938016&#45;&gt;4304000336+ -->
<g id="edge14" class="edge">
<title>4298938016&#45;&gt;4304000336+</title>
<path fill="none" stroke="black" d="M1505.48,-165.97C1514.91,-164.26 1524.05,-162.61 1532.32,-161.11"/>
<polygon fill="black" stroke="black" points="1532.66,-164.61 1541.88,-159.38 1531.42,-157.72 1532.66,-164.61"/>
</g>
<!-- 4303856336 -->
<g id="node9" class="node">
<title>4303856336</title>
<polygon fill="none" stroke="black" points="652.62,-137.5 652.62,-173.5 843.12,-173.5 843.12,-137.5 652.62,-137.5"/>
<text text-anchor="middle" x="667.37" y="-150.7" font-family="Times,serif" font-size="14.00">x1</text>
<polyline fill="none" stroke="black" points="682.12,-138 682.12,-173.5"/>
<text text-anchor="middle" x="721.99" y="-150.7" font-family="Times,serif" font-size="14.00">data 5.0000</text>
<polyline fill="none" stroke="black" points="761.87,-138 761.87,-173.5"/>
<text text-anchor="middle" x="802.49" y="-150.7" font-family="Times,serif" font-size="14.00">grad 7.0000</text>
</g>
<!-- 4303856336&#45;&gt;4298940464* -->
<g id="edge10" class="edge">
<title>4303856336&#45;&gt;4298940464*</title>
<path fill="none" stroke="black" d="M843.45,-155.5C855.73,-155.5 867.68,-155.5 878.21,-155.5"/>
<polygon fill="black" stroke="black" points="877.93,-159 887.93,-155.5 877.93,-152 877.93,-159"/>
</g>
<!-- 4303999712 -->
<g id="node10" class="node">
<title>4303999712</title>
<polygon fill="none" stroke="black" points="642.12,-27.5 642.12,-63.5 853.62,-63.5 853.62,-27.5 642.12,-27.5"/>
<text text-anchor="middle" x="665.12" y="-40.7" font-family="Times,serif" font-size="14.00">w2x2</text>
<polyline fill="none" stroke="black" points="688.12,-28 688.12,-63.5"/>
<text text-anchor="middle" x="727.99" y="-40.7" font-family="Times,serif" font-size="14.00">data 1.1429</text>
<polyline fill="none" stroke="black" points="767.87,-28 767.87,-63.5"/>
<text text-anchor="middle" x="810.74" y="-40.7" font-family="Times,serif" font-size="14.00">grad &#45;1.0000</text>
</g>
<!-- 4303999952* -->
<g id="node18" class="node">
<title>4303999952*</title>
<ellipse fill="none" stroke="black" cx="916.62" cy="-100.5" rx="27" ry="18"/>
<text text-anchor="middle" x="916.62" y="-95.45" font-family="Times,serif" font-size="14.00">*</text>
</g>
<!-- 4303999712&#45;&gt;4303999952* -->
<g id="edge13" class="edge">
<title>4303999712&#45;&gt;4303999952*</title>
<path fill="none" stroke="black" d="M823.39,-63.95C833.62,-66.91 843.93,-70.12 853.62,-73.5 863.6,-76.99 874.24,-81.36 883.83,-85.57"/>
<polygon fill="black" stroke="black" points="882.19,-88.67 892.75,-89.58 885.06,-82.29 882.19,-88.67"/>
</g>
<!-- 4303999712*&#45;&gt;4303999712 -->
<g id="edge4" class="edge">
<title>4303999712*&#45;&gt;4303999712</title>
<path fill="none" stroke="black" d="M606.54,-45.5C613.64,-45.5 621.8,-45.5 630.53,-45.5"/>
<polygon fill="black" stroke="black" points="630.36,-49 640.36,-45.5 630.36,-42 630.36,-49"/>
</g>
<!-- 4298938160 -->
<g id="node12" class="node">
<title>4298938160</title>
<polygon fill="none" stroke="black" points="0,-0.5 0,-36.5 190.5,-36.5 190.5,-0.5 0,-0.5"/>
<text text-anchor="middle" x="14.75" y="-13.7" font-family="Times,serif" font-size="14.00">x2</text>
<polyline fill="none" stroke="black" points="29.5,-1 29.5,-36.5"/>
<text text-anchor="middle" x="69.38" y="-13.7" font-family="Times,serif" font-size="14.00">data 7.0000</text>
<polyline fill="none" stroke="black" points="109.25,-1 109.25,-36.5"/>
<text text-anchor="middle" x="149.88" y="-13.7" font-family="Times,serif" font-size="14.00">grad 0.1633</text>
</g>
<!-- 4298938160&#45;&gt;4303999520**&#45;1 -->
<g id="edge11" class="edge">
<title>4298938160&#45;&gt;4303999520**&#45;1</title>
<path fill="none" stroke="black" d="M190.78,-18.5C199.12,-18.5 207.21,-18.5 214.65,-18.5"/>
<polygon fill="black" stroke="black" points="214.6,-22 224.6,-18.5 214.6,-15 214.6,-22"/>
</g>
<!-- 4304000336 -->
<g id="node13" class="node">
<title>4304000336</title>
<polygon fill="none" stroke="black" points="1632.87,-136.5 1632.87,-172.5 1824.87,-172.5 1824.87,-136.5 1632.87,-136.5"/>
<text text-anchor="middle" x="1644.99" y="-149.7" font-family="Times,serif" font-size="14.00">L</text>
<polyline fill="none" stroke="black" points="1657.12,-137 1657.12,-172.5"/>
<text text-anchor="middle" x="1700.37" y="-149.7" font-family="Times,serif" font-size="14.00">data 35.8571</text>
<polyline fill="none" stroke="black" points="1743.62,-137 1743.62,-172.5"/>
<text text-anchor="middle" x="1784.24" y="-149.7" font-family="Times,serif" font-size="14.00">grad 1.0000</text>
</g>
<!-- 4304000336+&#45;&gt;4304000336 -->
<g id="edge5" class="edge">
<title>4304000336+&#45;&gt;4304000336</title>
<path fill="none" stroke="black" d="M1597.14,-154.5C1604.26,-154.5 1612.43,-154.5 1621.14,-154.5"/>
<polygon fill="black" stroke="black" points="1620.89,-158 1630.89,-154.5 1620.89,-151 1620.89,-158"/>
</g>
<!-- 4303999904 -->
<g id="node15" class="node">
<title>4303999904</title>
<polygon fill="none" stroke="black" points="655.24,-82.5 655.24,-118.5 840.49,-118.5 840.49,-82.5 655.24,-82.5"/>
<text text-anchor="middle" x="665.12" y="-95.7" font-family="Times,serif" font-size="14.00"> </text>
<polyline fill="none" stroke="black" points="674.99,-83 674.99,-118.5"/>
<text text-anchor="middle" x="717.12" y="-95.7" font-family="Times,serif" font-size="14.00">data &#45;1.0000</text>
<polyline fill="none" stroke="black" points="759.24,-83 759.24,-118.5"/>
<text text-anchor="middle" x="799.87" y="-95.7" font-family="Times,serif" font-size="14.00">grad 1.1429</text>
</g>
<!-- 4303999904&#45;&gt;4303999952* -->
<g id="edge16" class="edge">
<title>4303999904&#45;&gt;4303999952*</title>
<path fill="none" stroke="black" d="M840.53,-100.5C853.79,-100.5 866.76,-100.5 878.1,-100.5"/>
<polygon fill="black" stroke="black" points="877.74,-104 887.74,-100.5 877.74,-97 877.74,-104"/>
</g>
<!-- 4298938304 -->
<g id="node16" class="node">
<title>4298938304</title>
<polygon fill="none" stroke="black" points="318.12,-55.5 318.12,-91.5 516.12,-91.5 516.12,-55.5 318.12,-55.5"/>
<text text-anchor="middle" x="334.37" y="-68.7" font-family="Times,serif" font-size="14.00">w2</text>
<polyline fill="none" stroke="black" points="350.62,-56 350.62,-91.5"/>
<text text-anchor="middle" x="390.49" y="-68.7" font-family="Times,serif" font-size="14.00">data 8.0000</text>
<polyline fill="none" stroke="black" points="430.37,-56 430.37,-91.5"/>
<text text-anchor="middle" x="473.24" y="-68.7" font-family="Times,serif" font-size="14.00">grad &#45;0.1429</text>
</g>
<!-- 4298938304&#45;&gt;4303999712* -->
<g id="edge17" class="edge">
<title>4298938304&#45;&gt;4303999712*</title>
<path fill="none" stroke="black" d="M516.26,-56.33C525.11,-54.78 533.64,-53.28 541.4,-51.93"/>
<polygon fill="black" stroke="black" points="541.78,-55.41 551.03,-50.24 540.57,-48.52 541.78,-55.41"/>
</g>
<!-- 4303999952 -->
<g id="node17" class="node">
<title>4303999952</title>
<polygon fill="none" stroke="black" points="993.87,-82.5 993.87,-118.5 1179.12,-118.5 1179.12,-82.5 993.87,-82.5"/>
<text text-anchor="middle" x="1003.74" y="-95.7" font-family="Times,serif" font-size="14.00"> </text>
<polyline fill="none" stroke="black" points="1013.62,-83 1013.62,-118.5"/>
<text text-anchor="middle" x="1055.74" y="-95.7" font-family="Times,serif" font-size="14.00">data &#45;1.1429</text>
<polyline fill="none" stroke="black" points="1097.87,-83 1097.87,-118.5"/>
<text text-anchor="middle" x="1138.49" y="-95.7" font-family="Times,serif" font-size="14.00">grad 1.0000</text>
</g>
<!-- 4303999952&#45;&gt;4304000144+ -->
<g id="edge12" class="edge">
<title>4303999952&#45;&gt;4304000144+</title>
<path fill="none" stroke="black" d="M1179.29,-115.26C1193.18,-117.5 1206.78,-119.69 1218.56,-121.58"/>
<polygon fill="black" stroke="black" points="1217.74,-124.99 1228.17,-123.13 1218.85,-118.08 1217.74,-124.99"/>
</g>
<!-- 4303999952*&#45;&gt;4303999952 -->
<g id="edge6" class="edge">
<title>4303999952*&#45;&gt;4303999952</title>
<path fill="none" stroke="black" d="M943.85,-100.5C954.69,-100.5 968.02,-100.5 982.13,-100.5"/>
<polygon fill="black" stroke="black" points="982.06,-104 992.06,-100.5 982.06,-97 982.06,-104"/>
</g>
</g>
</svg>
